<?xml version="1.0" encoding="iso-8859-1"?>
<!-- Uploaded to: SVG Repo, www.svgrepo.com, Generator: SVG Repo Mixer Tools -->
<!DOCTYPE svg PUBLIC "-//W3C//DTD SVG 1.1//EN" "http://www.w3.org/Graphics/SVG/1.1/DTD/svg11.dtd">
<svg fill="#000000" version="1.1" id="Capa_1" xmlns="http://www.w3.org/2000/svg" xmlns:xlink="http://www.w3.org/1999/xlink" 
	 width="800px" height="800px" viewBox="0 0 28.668 28.668"
	 xml:space="preserve">
<g>
	<g>
		<path d="M26.86,15.188c0-0.157,1.129-2.211,1.129-2.211l-2.037,0.043c-0.914-1.354-2.631-2.028-4.282-1.546
			c-1.896,0.553-3.04,2.43-2.728,4.33l-0.002,0.002c-0.936,0.133-2.187-1.026-3.766-3.224c-1.258,2.853-0.398,5.354,0.458,6.137
			c-1.188,0.493-3.757,0.464-4.95,0.204c2.967,3.488,5.732,3.776,8.402,3.58c0.984,0.204,2.029,0.182,3.062-0.119
			c3.357-0.98,5.663-3.561,4.709-6.92C26.86,15.366,26.86,15.273,26.86,15.188z M24.265,14.977
			c-0.562,0.166-1.152-0.159-1.314-0.721c-0.166-0.562,0.158-1.151,0.721-1.314c0.562-0.165,1.15,0.158,1.314,0.72
			S24.825,14.813,24.265,14.977z"/>
		<path d="M23.888,13.429L23.888,13.429c0.033,0.034,0.061,0.073,0.075,0.121c0.045,0.156-0.044,0.319-0.2,0.365
			c-0.09,0.026-0.18,0.003-0.25-0.047c-0.01,0.071-0.006,0.146,0.016,0.219c0.082,0.281,0.375,0.442,0.656,0.36
			c0.281-0.083,0.443-0.376,0.361-0.658C24.464,13.509,24.169,13.347,23.888,13.429z"/>
		<path d="M10.722,9.495l8.675,0.107h0.025c1.825-0.007,3.31-1.498,3.31-3.322c0-1.833-1.49-3.323-3.322-3.323
			c-0.18,0-0.357,0.015-0.53,0.043l-0.128,0.021l-0.018-0.128C18.519,1.243,17.103,0,15.438,0c-1.658,0-3.074,1.238-3.294,2.88
			l-0.017,0.125l-0.125-0.018c-0.145-0.021-0.296-0.031-0.449-0.031c-1.832,0-3.323,1.491-3.323,3.323
			C8.23,7.794,9.255,9.116,10.722,9.495z M11.554,3.691c0.275,0,0.551,0.045,0.82,0.135l0.512,0.171l-0.031-0.596
			c-0.002-0.025-0.004-0.051-0.004-0.079c0-1.427,1.16-2.588,2.588-2.588s2.588,1.161,2.588,2.588c0,0.035-0.002,0.068-0.004,0.102
			l-0.039,0.625l0.528-0.196c0.293-0.108,0.595-0.164,0.896-0.164c1.428,0,2.588,1.161,2.588,2.588c0,1.42-1.154,2.581-2.576,2.588
			h-8l-0.191-0.023C9.938,8.682,8.966,7.58,8.966,6.279C8.966,4.852,10.127,3.691,11.554,3.691z"/>
		<path d="M10.474,22.845c-0.156,0-0.313,0.013-0.465,0.038l-0.111,0.02l-0.016-0.113c-0.188-1.445-1.429-2.534-2.888-2.534
			c-1.452,0-2.693,1.085-2.886,2.524l-0.015,0.109l-0.109-0.017c-0.128-0.019-0.26-0.027-0.394-0.027
			c-1.605,0-2.911,1.306-2.911,2.912c0,1.327,0.897,2.486,2.182,2.817l7.604,0.094h0.021c1.6-0.006,2.9-1.312,2.9-2.911
			C13.386,24.15,12.079,22.845,10.474,22.845z M10.484,28.025H3.472l-0.166-0.021c-1.131-0.142-1.982-1.108-1.982-2.248
			c0-1.251,1.018-2.269,2.268-2.269c0.241,0,0.482,0.039,0.719,0.119l0.448,0.149L4.73,23.234c-0.002-0.021-0.003-0.045-0.003-0.068
			c0-1.25,1.018-2.268,2.268-2.268c1.251,0,2.269,1.018,2.269,2.268c0,0.029-0.002,0.061-0.004,0.089l-0.035,0.548l0.465-0.171
			c0.256-0.095,0.521-0.144,0.785-0.144c1.25,0,2.268,1.018,2.268,2.269C12.742,27.002,11.729,28.02,10.484,28.025z"/>
	</g>
</g>
</svg>