<?xml version="1.0" encoding="iso-8859-1"?>
<!-- Uploaded to: SVG Repo, www.svgrepo.com, Generator: SVG Repo Mixer Tools -->
<!DOCTYPE svg PUBLIC "-//W3C//DTD SVG 1.1//EN" "http://www.w3.org/Graphics/SVG/1.1/DTD/svg11.dtd">
<svg fill="#000000" version="1.1" id="Capa_1" xmlns="http://www.w3.org/2000/svg" xmlns:xlink="http://www.w3.org/1999/xlink" 
	 width="800px" height="800px" viewBox="0 0 77.174 77.174"
	 xml:space="preserve">
<g>
	<path d="M66.665,23.06c2.98-2.371,4.9-6.023,4.9-10.12C71.565,5.805,65.76,0,58.625,0c-2.173,0-4.312,0.549-6.213,1.593
		C50.854,0.563,48.995,0,47.127,0c-3.93,0-7.414,2.373-8.861,5.966c-0.69-0.158-1.397-0.236-2.108-0.236
		c-5.275,0-9.566,4.291-9.566,9.565c0,1.567,0.387,3.043,1.057,4.349c-2.191,1.615-3.883,3.895-4.772,6.605
		c-1.24-0.371-2.521-0.558-3.82-0.558c-7.417,0-13.452,6.035-13.452,13.451c0,7.418,6.035,13.453,13.452,13.453
		c2.045,0,4.053-0.469,5.884-1.363c0.989,2.633,2.758,4.828,4.996,6.357v-3.021c-1.505-1.412-2.635-3.242-3.17-5.354
		c-0.092-0.367-0.354-0.664-0.704-0.806c-0.14-0.056-0.287-0.082-0.435-0.082c-0.22,0-0.439,0.062-0.63,0.185
		c-1.786,1.135-3.841,1.733-5.941,1.733c-6.122,0-11.103-4.979-11.103-11.104c0-6.124,4.98-11.103,11.103-11.103
		c1.434,0,2.837,0.276,4.175,0.819c0.318,0.13,0.68,0.113,0.986-0.046c0.305-0.161,0.525-0.446,0.602-0.783
		c0.602-2.666,2.112-4.902,4.158-6.437c0.795-0.596,1.669-1.082,2.604-1.446c1.262-0.491,2.628-0.767,4.058-0.767
		c2.592,0,5.116,0.914,7.106,2.575c0.397,0.332,0.965,0.363,1.397,0.079c2.646-1.736,5.714-2.654,8.87-2.654
		c3.439,0,6.627,1.085,9.252,2.92c0.873,0.608,1.681,1.302,2.414,2.066c2.804,2.914,4.537,6.863,4.537,11.216
		c0,8.934-7.269,16.202-16.203,16.202c-1.442,0-2.914-0.207-4.367-0.614c-0.53-0.148-1.092,0.092-1.354,0.573
		c-1.197,2.224-3.09,3.903-5.315,4.881v2.513c2.823-0.988,5.28-2.883,6.919-5.479c1.372,0.316,2.754,0.477,4.117,0.477
		c10.229,0,18.554-8.32,18.554-18.551C71.567,30.752,69.698,26.363,66.665,23.06L66.665,23.06z M64.526,21.064
		c-3.168-2.518-7.164-4.032-11.514-4.032c-3.334,0-6.58,0.894-9.441,2.592c-2.295-1.678-5.08-2.592-7.934-2.592
		c-1.949,0-3.807,0.418-5.488,1.163c-0.426-0.879-0.672-1.859-0.672-2.9c0-3.682,2.996-6.679,6.68-6.679
		c0.861,0,1.707,0.165,2.51,0.492c0.174,0.07,0.357,0.106,0.545,0.106c0.232,0,0.462-0.057,0.667-0.162
		c0.377-0.198,0.646-0.548,0.74-0.962c0.691-3.065,3.368-5.205,6.508-5.205c1.561,0,3.078,0.55,4.275,1.548
		c0.259,0.218,0.588,0.337,0.926,0.337c0.281,0,0.555-0.082,0.791-0.236c1.643-1.078,3.547-1.648,5.506-1.648
		c5.543,0,10.053,4.51,10.053,10.055C68.678,16.279,67.036,19.233,64.526,21.064z M39.458,59.49l0.335-2.436
		c-0.742,0.112-1.492,0.19-2.26,0.19c-0.945,0-3.609-0.89-4.516-1.06l-0.377,2.687l-3.252,5.377l3.818,2.646l-3.818,10.279
		l10.868-9.619l-5.435-3.306L39.458,59.49z"/>
</g>
</svg>